<svg xmlns="http://www.w3.org/2000/svg" viewBox="0 0 120.16 55.81"><defs><style>.cls-1{fill:red;}</style></defs><g id="Layer_2" data-name="Layer 2"><g id="Layer_1-2" data-name="Layer 1"><path class="cls-1" d="M23.73.08c-6.39,0-12.83-.2-19.22,0C2,.2.12,1.47,0,4.13A24.06,24.06,0,0,0,.39,8L1,13,3.34,32.31l1.14,9.42L5,46.19a17.62,17.62,0,0,0,.68,4.29c1.22,3.1,5.47,2.25,8.09,2.23l11,0a1.5,1.5,0,0,0,0-3l-8.48,0-4,0h-2c-.42,0-1.38.15-1.72-.16s-.26-1-.31-1.39c-.09-.66-.16-1.32-.24-2l-.54-4.46-1-8.43-2-16.86-1-8.18A37,37,0,0,1,3,4.48c0-1.21.57-1.35,1.69-1.37,6.34-.12,12.7,0,19,0a1.5,1.5,0,0,0,0-3Z"/><path class="cls-1" d="M91.93,8.31c5.77-.06,11.58-.32,17.35-.15,1.1,0,1.77.3,1.93,1.45a19.39,19.39,0,0,1,0,3.49c-.1,2.7-.14,5.4-.08,8.1A94,94,0,0,0,112.63,37a67.91,67.91,0,0,0,1.89,7.56c.38,1.21.8,2.4,1.25,3.58s1.35,2.52,1.47,3.75-2,.89-2.78.9c-1.56,0-3.12,0-4.68-.1a50.53,50.53,0,0,1-9.29-1.57A1.5,1.5,0,0,0,99.7,54a54.14,54.14,0,0,0,9.38,1.62c1.48.13,3,.18,4.44.18a14,14,0,0,0,4.34-.39c2.91-1,2.58-3.87,1.6-6.16a60.73,60.73,0,0,1-2.91-8.49,82.28,82.28,0,0,1-2.44-18.21c-.09-3-.07-6,0-9,.08-2.31.59-5.22-1.18-7.08a5.46,5.46,0,0,0-4.08-1.32c-1.87,0-3.74,0-5.61,0l-11.34.11a1.5,1.5,0,0,0,0,3Z"/></g></g></svg>