<svg xmlns="http://www.w3.org/2000/svg" viewBox="0 0 189.17 87.67"><defs><style>.cls-1{fill:red;}</style></defs><g id="Layer_2" data-name="Layer 2"><g id="Layer_1-2" data-name="Layer 1"><path class="cls-1" d="M142.49,17c-16.79-4.39-33.68-8.65-50.9-11C74.73,3.61,57.49,3,40.72,6.39,32.91,8,24.92,10.23,17.86,14,11.8,17.22,5.93,21.82,2.54,27.91A18.87,18.87,0,0,0,2.66,47c3.64,6,10,10,16,13.21a231.23,231.23,0,0,0,46,18.48,238.32,238.32,0,0,0,48.88,8.44,234.12,234.12,0,0,0,49.77-2c6.74-1,14.52-1.78,20.18-6a13.43,13.43,0,0,0,5.38-7.95,15.16,15.16,0,0,0-1.73-10.12c-3.69-7.1-10.58-11.94-16.8-16.65q-10.2-7.73-21-14.7A354.32,354.32,0,0,0,104.59,5.11C100.8,3.37,97,1.7,93.13.08a1.51,1.51,0,0,0-1.85,1,1.53,1.53,0,0,0,1,1.84,352.92,352.92,0,0,1,43.93,22.17Q146.88,31.47,157,38.51A234,234,0,0,1,176.42,53c4.81,4.14,11.24,10.76,9.51,17.79-1.59,6.43-8.68,8.72-14.43,9.93-15.35,3.21-31.38,4.2-47,3.88a234.44,234.44,0,0,1-47.35-5.84A231,231,0,0,1,31.92,63.46c-6.72-3.1-13.69-6.3-19.68-10.69C7,48.93,2.63,43.48,3,36.67c.31-6.5,4.91-11.94,9.78-15.8,5.74-4.54,12.58-7.24,19.53-9.3C47.92,6.93,64.41,6.27,80.6,7.69c16.65,1.46,33,5.09,49.22,9.15,4,1,7.92,2,11.87,3.06a1.51,1.51,0,0,0,.8-2.9Z"/></g></g></svg>